<svg width="1024" height="1024" xmlns="http://www.w3.org/2000/svg" data-spm-anchor-id="a313x.search_index.0.i1.5f043a81xMatTF" p-id="4118" version="1.1" class="icon" t="1696258058078">

 <g>
  <title>Layer 1</title>
  <path id="svg_1" p-id="4119" fill="#C3D2FB" d="m508,672l-264,0c-90.4,0 -164,-73.6 -164,-164s73.6,-164 164,-164l264,0c90.4,0 164,73.6 164,164s-73.6,164 -164,164z"/>
  <path id="svg_2" p-id="4120" fill="#7094F3" d="m692.8,672l-194.4,0c-146.4,0 -266.4,-120 -266.4,-266.4l0,-51.2c0,-146.4 120,-266.4 266.4,-266.4c161.6,0 293.6,132 293.6,293.6l0,191.2c0,54.4 -44.8,99.2 -99.2,99.2z"/>
  <path id="svg_3" p-id="4121" fill="#386BF3" d="m488,444a228,228 0 1 0 456,0a228,228 0 1 0 -456,0z"/>
  <path id="svg_4" class="selected" data-spm-anchor-id="a313x.search_index.0.i0.5f043a81xMatTF" p-id="4122" fill="#3D4265" d="m464,752l96,0l0,144l-96,0l0,-144z"/>
  <path id="svg_5" class="selected" data-spm-anchor-id="a313x.search_index.0.i0.5f043a81xMatTF" p-id="4122" fill="#3D4265" d="m464,752l96,0l0,144l-96,0l0,-144z"/>
  <path id="svg_6" class="selected" data-spm-anchor-id="a313x.search_index.0.i0.5f043a81xMatTF" p-id="4122" fill="#0061b2" d="m464,752l96,0l0,144l-96,0l0,-144z"/>
  <path id="svg_7" class="selected" data-spm-anchor-id="a313x.search_index.0.i0.5f043a81xMatTF" p-id="4122" fill="#0061b2" d="m650.28484,752l96,0l0,144l-96,0l0,-144z"/>
  <path id="svg_8" class="selected" data-spm-anchor-id="a313x.search_index.0.i0.5f043a81xMatTF" p-id="4122" fill="#0061b2" d="m269.38765,752l96,0l0,144l-96,0l0,-144z"/>
 </g>
</svg>